<svg
    xmlns="http://www.w3.org/2000/svg"
    viewBox="0 0 24 24"
    id="end"
    width="24px"
    height="24px">
    <path
        id="dot_mid"
        d="M 11.602 12 C 11.602 11.781 11.78 11.603 12.001 11.603 C 12.22 11.603 12.398 11.781 12.398 12 C 12.398 12.219 12.22 12.397 12.001 12.397 C 11.78 12.397 11.602 12.219 11.602 12 Z"
        fill="#979797"
        stroke="#979797"
        stroke-width="0.1"/>
    <path
        id="5"
        d="M 6.843 12.005 C 6.843 9.203 9.148 6.926 11.995 6.926 C 14.848 6.926 17.158 9.203 17.158 12.005 C 17.158 14.806 14.848 17.074 11.995 17.074 C 9.148 17.074 6.843 14.806 6.843 12.005 Z"
        fill="#d8d8d8"
        fill-opacity="0"
        stroke="#979797"
        stroke-width="0.2"/>
    <path
        id="4"
        d="M 7.593 11.999 C 7.593 9.566 9.568 7.595 12.002 7.595 C 14.434 7.595 16.407 9.566 16.407 11.999 C 16.407 14.435 14.434 16.405 12.002 16.405 C 9.569 16.405 7.593 14.435 7.593 11.999 Z"
        fill="#d8d8d8"
        fill-opacity="0"
        stroke="#979797"
        stroke-width="0.2"/>
    <path
        id="3"
        d="M 8.717 12.001 C 8.717 10.186 10.187 8.718 12 8.718 C 13.813 8.718 15.283 10.186 15.283 12.001 C 15.283 13.814 13.813 15.282 12 15.282 C 10.187 15.282 8.717 13.814 8.717 12.001 Z"
        fill="#d8d8d8"
        fill-opacity="0"
        stroke="#979797"
        stroke-width="0.2"/>
    <path
        id="2"
        d="M 10.302 12 C 10.302 11.062 11.062 10.303 12.001 10.303 C 12.938 10.303 13.698 11.062 13.698 12 C 13.698 12.937 12.938 13.697 12.001 13.697 C 11.062 13.697 10.302 12.937 10.302 12 Z"
        fill="#d8d8d8"
        fill-opacity="0"
        stroke="#979797"
        stroke-width="0.2"/>
    <path
        id="1"
        d="M 11.602 12 C 11.602 11.781 11.78 11.603 12.001 11.603 C 12.22 11.603 12.398 11.781 12.398 12 C 12.398 12.219 12.22 12.397 12.001 12.397 C 11.78 12.397 11.602 12.219 11.602 12 Z"
        fill="#d8d8d8"
        fill-opacity="0"
        stroke="#979797"
        stroke-width="0.2"/>
    <path
        id="rod"
        d="M 12 12 L 19 11.952 Z"
        fill="#d8d8d8"
        stroke="#979797"
        stroke-width="0.3"
        stroke-linecap="round"
        stroke-linejoin="round"/>
</svg>
