<svg
    xmlns="http://www.w3.org/2000/svg"
    viewBox="0 0 24 24"
    id="end"
    width="24px"
    height="24px">
    <path
        id="dot_mid"
        d="M 11.602 12 C 11.602 11.781 11.78 11.603 12.001 11.603 C 12.22 11.603 12.398 11.781 12.398 12 C 12.398 12.219 12.22 12.397 12.001 12.397 C 11.78 12.397 11.602 12.219 11.602 12 Z"
        fill="#979797"
        stroke="#979797"
        stroke-width="0.1"/>
    <path
        id="5"
        d="M 6.561 12.005 C 6.561 9.05 8.992 6.649 11.995 6.649 C 15.004 6.649 17.44 9.05 17.44 12.005 C 17.44 14.96 15.004 17.351 11.995 17.351 C 8.992 17.351 6.561 14.96 6.561 12.005 Z"
        fill="#d8d8d8"
        fill-opacity="0"
        stroke="#979797"
        stroke-width="0.2"/>
    <path
        id="4"
        d="M 11.602 12 C 11.602 11.781 11.78 11.603 12.001 11.603 C 12.22 11.603 12.398 11.781 12.398 12 C 12.398 12.219 12.22 12.397 12.001 12.397 C 11.78 12.397 11.602 12.219 11.602 12 Z"
        fill="#d8d8d8"
        fill-opacity="0"
        stroke="#979797"
        stroke-width="0.2"/>
    <path
        id="3"
        d="M 11.602 12 C 11.602 11.781 11.78 11.603 12.001 11.603 C 12.22 11.603 12.398 11.781 12.398 12 C 12.398 12.219 12.22 12.397 12.001 12.397 C 11.78 12.397 11.602 12.219 11.602 12 Z"
        fill="#d8d8d8"
        fill-opacity="0"
        stroke="#979797"
        stroke-width="0.2"/>
    <path
        id="2"
        d="M 11.602 12 C 11.602 11.781 11.78 11.603 12.001 11.603 C 12.22 11.603 12.398 11.781 12.398 12 C 12.398 12.219 12.22 12.397 12.001 12.397 C 11.78 12.397 11.602 12.219 11.602 12 Z"
        fill="#d8d8d8"
        fill-opacity="0"
        stroke="#979797"
        stroke-width="0.2"/>
    <path
        id="1"
        d="M 11.602 12 C 11.602 11.781 11.78 11.603 12.001 11.603 C 12.22 11.603 12.398 11.781 12.398 12 C 12.398 12.219 12.22 12.397 12.001 12.397 C 11.78 12.397 11.602 12.219 11.602 12 Z"
        fill="#d8d8d8"
        fill-opacity="0"
        stroke="#979797"
        stroke-width="0.2"/>
    <path
        id="rod"
        d="M 12 12 L 19.596 12 Z"
        fill="#d8d8d8"
        stroke="#979797"
        stroke-width="0.3"
        stroke-linecap="round"
        stroke-linejoin="round"/>
</svg>
