<svg
    xmlns="http://www.w3.org/2000/svg"
    viewBox="0 0 24 24"
    id="end"
    width="24px"
    height="24px">
    <path
        id="dot_mid"
        d="M 11.602 12 C 11.602 11.781 11.78 11.603 12.001 11.603 C 12.22 11.603 12.398 11.781 12.398 12 C 12.398 12.219 12.22 12.397 12.001 12.397 C 11.78 12.397 11.602 12.219 11.602 12 Z"
        fill="#979797"
        stroke="#979797"
        stroke-width="0.1"/>
    <path
        id="5"
        d="M 6.249 12.006 C 6.249 8.881 8.819 6.343 11.994 6.343 C 15.176 6.343 17.752 8.881 17.752 12.006 C 17.752 15.129 15.176 17.657 11.994 17.657 C 8.819 17.657 6.249 15.129 6.249 12.006 Z"
        fill="#d8d8d8"
        fill-opacity="0"
        stroke="#979797"
        stroke-width="0.2"/>
    <path
        id="4"
        d="M 8.114 11.999 C 8.114 9.854 9.856 8.116 12.002 8.116 C 14.146 8.116 15.886 9.854 15.886 11.999 C 15.886 14.147 14.146 15.884 12.002 15.884 C 9.857 15.884 8.114 14.147 8.114 11.999 Z"
        fill="#d8d8d8"
        fill-opacity="0"
        stroke="#979797"
        stroke-width="0.2"/>
    <path
        id="3"
        d="M 11.602 12 C 11.602 11.781 11.78 11.603 12.001 11.603 C 12.22 11.603 12.398 11.781 12.398 12 C 12.398 12.219 12.22 12.397 12.001 12.397 C 11.78 12.397 11.602 12.219 11.602 12 Z"
        fill="#d8d8d8"
        fill-opacity="0"
        stroke="#979797"
        stroke-width="0.2"/>
    <path
        id="2"
        d="M 11.602 12 C 11.602 11.781 11.78 11.603 12.001 11.603 C 12.22 11.603 12.398 11.781 12.398 12 C 12.398 12.219 12.22 12.397 12.001 12.397 C 11.78 12.397 11.602 12.219 11.602 12 Z"
        fill="#d8d8d8"
        fill-opacity="0"
        stroke="#979797"
        stroke-width="0.2"/>
    <path
        id="1"
        d="M 11.602 12 C 11.602 11.781 11.78 11.603 12.001 11.603 C 12.22 11.603 12.398 11.781 12.398 12 C 12.398 12.219 12.22 12.397 12.001 12.397 C 11.78 12.397 11.602 12.219 11.602 12 Z"
        fill="#d8d8d8"
        fill-opacity="0"
        stroke="#979797"
        stroke-width="0.2"/>
    <path
        id="rod"
        d="M 12 12 L 19.344 12 Z"
        fill="#d8d8d8"
        stroke="#979797"
        stroke-width="0.3"
        stroke-linecap="round"
        stroke-linejoin="round"/>
</svg>
