<svg
    xmlns="http://www.w3.org/2000/svg"
    viewBox="0 0 24 24"
    id="end"
    width="24px"
    height="24px">
    <path
        id="dot_mid"
        d="M 11.602 12 C 11.602 11.781 11.78 11.603 12.001 11.603 C 12.22 11.603 12.398 11.781 12.398 12 C 12.398 12.219 12.22 12.397 12.001 12.397 C 11.78 12.397 11.602 12.219 11.602 12 Z"
        fill="#979797"
        stroke="#979797"
        stroke-width="0.1"/>
    <path
        id="5"
        d="M 6.856 12.005 C 6.856 9.21 9.155 6.939 11.995 6.939 C 14.841 6.939 17.145 9.21 17.145 12.005 C 17.145 14.799 14.841 17.061 11.995 17.061 C 9.155 17.061 6.856 14.799 6.856 12.005 Z"
        fill="#d8d8d8"
        fill-opacity="0"
        stroke="#979797"
        stroke-width="0.2"/>
    <path
        id="4"
        d="M 7.814 11.999 C 7.814 9.688 9.69 7.816 12.002 7.816 C 14.312 7.816 16.186 9.688 16.186 11.999 C 16.186 14.313 14.312 16.184 12.002 16.184 C 9.691 16.184 7.814 14.313 7.814 11.999 Z"
        fill="#d8d8d8"
        fill-opacity="0"
        stroke="#979797"
        stroke-width="0.2"/>
    <path
        id="3"
        d="M 8.874 12.001 C 8.874 10.273 10.274 8.875 12 8.875 C 13.726 8.875 15.126 10.273 15.126 12.001 C 15.126 13.727 13.726 15.125 12 15.125 C 10.274 15.125 8.874 13.727 8.874 12.001 Z"
        fill="#d8d8d8"
        fill-opacity="0"
        stroke="#979797"
        stroke-width="0.2"/>
    <path
        id="2"
        d="M 11.589 12 C 11.589 11.774 11.773 11.59 12.001 11.59 C 12.227 11.59 12.411 11.774 12.411 12 C 12.411 12.226 12.227 12.41 12.001 12.41 C 11.773 12.41 11.589 12.226 11.589 12 Z"
        fill="#d8d8d8"
        fill-opacity="0"
        stroke="#979797"
        stroke-width="0.2"/>
    <path
        id="1"
        d="M 11.602 12 C 11.602 11.781 11.78 11.603 12.001 11.603 C 12.22 11.603 12.398 11.781 12.398 12 C 12.398 12.219 12.22 12.397 12.001 12.397 C 11.78 12.397 11.602 12.219 11.602 12 Z"
        fill="#d8d8d8"
        fill-opacity="0"
        stroke="#979797"
        stroke-width="0.2"/>
    <path
        id="rod"
        d="M 12 12 L 10.124 14.936 Z"
        fill="#d8d8d8"
        stroke="#979797"
        stroke-width="0.3"
        stroke-linecap="round"
        stroke-linejoin="round"/>
</svg>
