<svg
    xmlns="http://www.w3.org/2000/svg"
    viewBox="0 0 24 24"
    id="end"
    width="24px"
    height="24px">
    <path
        id="dot_mid"
        d="M 11.602 12 C 11.602 11.781 11.78 11.603 12.001 11.603 C 12.22 11.603 12.398 11.781 12.398 12 C 12.398 12.219 12.22 12.397 12.001 12.397 C 11.78 12.397 11.602 12.219 11.602 12 Z"
        fill="#979797"
        stroke="#979797"
        stroke-width="0.1"/>
    <path
        id="5"
        d="M 6.856 12.005 C 6.856 9.21 9.155 6.939 11.995 6.939 C 14.841 6.939 17.145 9.21 17.145 12.005 C 17.145 14.799 14.841 17.061 11.995 17.061 C 9.155 17.061 6.856 14.799 6.856 12.005 Z"
        fill="#d8d8d8"
        fill-opacity="0"
        stroke="#979797"
        stroke-width="0.2"/>
    <path
        id="4"
        d="M 7.814 11.999 C 7.814 9.688 9.69 7.816 12.002 7.816 C 14.312 7.816 16.186 9.688 16.186 11.999 C 16.186 14.313 14.312 16.184 12.002 16.184 C 9.691 16.184 7.814 14.313 7.814 11.999 Z"
        fill="#d8d8d8"
        fill-opacity="0"
        stroke="#979797"
        stroke-width="0.2"/>
    <path
        id="3"
        d="M 8.874 12.001 C 8.874 10.273 10.274 8.875 12 8.875 C 13.726 8.875 15.126 10.273 15.126 12.001 C 15.126 13.727 13.726 15.125 12 15.125 C 10.274 15.125 8.874 13.727 8.874 12.001 Z"
        fill="#d8d8d8"
        fill-opacity="0"
        stroke="#979797"
        stroke-width="0.2"/>
    <path
        id="2"
        d="M 9.895 12 C 9.895 10.837 10.837 9.895 12.001 9.895 C 13.163 9.895 14.105 10.837 14.105 12 C 14.105 13.162 13.163 14.105 12.001 14.105 C 10.837 14.105 9.895 13.162 9.895 12 Z"
        fill="#d8d8d8"
        fill-opacity="0"
        stroke="#979797"
        stroke-width="0.2"/>
    <path
        id="1"
        d="M 10.897 12 C 10.897 11.39 11.391 10.897 12 10.897 C 12.61 10.897 13.104 11.39 13.104 12 C 13.104 12.61 12.61 13.103 12 13.103 C 11.391 13.103 10.897 12.61 10.897 12 Z"
        fill="#d8d8d8"
        fill-opacity="0"
        stroke="#979797"
        stroke-width="0.2"/>
    <path
        id="rod"
        d="M 12 12 L 19 8 Z"
        fill="#d8d8d8"
        stroke="#979797"
        stroke-width="0.3"
        stroke-linecap="round"
        stroke-linejoin="round"/>
</svg>
