<svg
    xmlns="http://www.w3.org/2000/svg"
    viewBox="0 0 24 24"
    id="end"
    width="24px"
    height="24px">
    <path
        id="dot_mid"
        d="M 11.602 12 C 11.602 11.781 11.78 11.603 12.001 11.603 C 12.22 11.603 12.398 11.781 12.398 12 C 12.398 12.219 12.22 12.397 12.001 12.397 C 11.78 12.397 11.602 12.219 11.602 12 Z"
        fill="#979797"
        stroke="#979797"
        stroke-width="0.1"/>
    <path
        id="5"
        d="M 6.729 12.005 C 6.729 9.141 9.085 6.814 11.995 6.814 C 14.911 6.814 17.272 9.141 17.272 12.005 C 17.272 14.868 14.911 17.186 11.995 17.186 C 9.085 17.186 6.729 14.868 6.729 12.005 Z"
        fill="#d8d8d8"
        fill-opacity="0"
        stroke="#979797"
        stroke-width="0.2"/>
    <path
        id="4"
        d="M 7.393 11.999 C 7.393 9.455 9.458 7.395 12.002 7.395 C 14.544 7.395 16.607 9.455 16.607 11.999 C 16.607 14.546 14.544 16.605 12.002 16.605 C 9.459 16.605 7.393 14.546 7.393 11.999 Z"
        fill="#d8d8d8"
        fill-opacity="0"
        stroke="#979797"
        stroke-width="0.2"/>
    <path
        id="3"
        d="M 9.087 12.001 C 9.087 10.391 10.391 9.088 12 9.088 C 13.609 9.088 14.913 10.391 14.913 12.001 C 14.913 13.609 13.609 14.912 12 14.912 C 10.391 14.912 9.087 13.609 9.087 12.001 Z"
        fill="#d8d8d8"
        fill-opacity="0"
        stroke="#979797"
        stroke-width="0.2"/>
    <path
        id="2"
        d="M 10.713 12 C 10.713 11.29 11.289 10.714 12.001 10.714 C 12.711 10.714 13.287 11.29 13.287 12 C 13.287 12.71 12.711 13.286 12.001 13.286 C 11.289 13.286 10.713 12.71 10.713 12 Z"
        fill="#d8d8d8"
        fill-opacity="0"
        stroke="#979797"
        stroke-width="0.2"/>
    <path
        id="1"
        d="M 11.602 12 C 11.602 11.781 11.78 11.603 12.001 11.603 C 12.22 11.603 12.398 11.781 12.398 12 C 12.398 12.219 12.22 12.397 12.001 12.397 C 11.78 12.397 11.602 12.219 11.602 12 Z"
        fill="#d8d8d8"
        fill-opacity="0"
        stroke="#979797"
        stroke-width="0.2"/>
    <path
        id="rod"
        d="M 12 12 L 19 12 Z"
        fill="#d8d8d8"
        stroke="#979797"
        stroke-width="0.3"
        stroke-linecap="round"
        stroke-linejoin="round"/>
</svg>
