<svg
    xmlns="http://www.w3.org/2000/svg"
    viewBox="0 0 24 24"
    id="end"
    width="24px"
    height="24px">
    <path
        id="dot_mid"
        d="M 11.602 12 C 11.602 11.781 11.78 11.603 12.001 11.603 C 12.22 11.603 12.398 11.781 12.398 12 C 12.398 12.219 12.22 12.397 12.001 12.397 C 11.78 12.397 11.602 12.219 11.602 12 Z"
        fill="#979797"
        stroke="#979797"
        stroke-width="0.1"/>
    <path
        id="5"
        d="M 7.813 12.004 C 7.813 9.728 9.684 7.879 11.996 7.879 C 14.312 7.879 16.188 9.728 16.188 12.004 C 16.188 14.279 14.312 16.121 11.996 16.121 C 9.684 16.121 7.813 14.279 7.813 12.004 Z"
        fill="#d8d8d8"
        fill-opacity="0"
        stroke="#979797"
        stroke-width="0.2"/>
    <path
        id="4"
        d="M 11.602 12 C 11.602 11.781 11.78 11.603 12.001 11.603 C 12.22 11.603 12.398 11.781 12.398 12 C 12.398 12.219 12.22 12.397 12.001 12.397 C 11.78 12.397 11.602 12.219 11.602 12 Z"
        fill="#d8d8d8"
        fill-opacity="0"
        stroke="#979797"
        stroke-width="0.2"/>
    <path
        id="3"
        d="M 11.602 12 C 11.602 11.781 11.78 11.603 12.001 11.603 C 12.22 11.603 12.398 11.781 12.398 12 C 12.398 12.219 12.22 12.397 12.001 12.397 C 11.78 12.397 11.602 12.219 11.602 12 Z"
        fill="#d8d8d8"
        fill-opacity="0"
        stroke="#979797"
        stroke-width="0.2"/>
    <path
        id="2"
        d="M 11.602 12 C 11.602 11.781 11.78 11.603 12.001 11.603 C 12.22 11.603 12.398 11.781 12.398 12 C 12.398 12.219 12.22 12.397 12.001 12.397 C 11.78 12.397 11.602 12.219 11.602 12 Z"
        fill="#d8d8d8"
        fill-opacity="0"
        stroke="#979797"
        stroke-width="0.2"/>
    <path
        id="1"
        d="M 11.602 12 C 11.602 11.781 11.78 11.603 12.001 11.603 C 12.22 11.603 12.398 11.781 12.398 12 C 12.398 12.219 12.22 12.397 12.001 12.397 C 11.78 12.397 11.602 12.219 11.602 12 Z"
        fill="#d8d8d8"
        fill-opacity="0"
        stroke="#979797"
        stroke-width="0.2"/>
    <path
        id="rod"
        d="M 12 12 L 19.609 12 Z"
        fill="#d8d8d8"
        stroke="#979797"
        stroke-width="0.3"
        stroke-linecap="round"
        stroke-linejoin="round"/>
</svg>
