<svg
    xmlns="http://www.w3.org/2000/svg"
    viewBox="0 0 24 24"
    id="end"
    width="24px"
    height="24px">
    <path
        id="dot_mid"
        d="M 11.602 12 C 11.602 11.781 11.78 11.603 12.001 11.603 C 12.22 11.603 12.398 11.781 12.398 12 C 12.398 12.219 12.22 12.397 12.001 12.397 C 11.78 12.397 11.602 12.219 11.602 12 Z"
        fill="#979797"
        stroke="#979797"
        stroke-width="0.1"/>
    <path
        id="5"
        d="M 6.55 12.005 C 6.55 9.044 8.986 6.639 11.995 6.639 C 15.01 6.639 17.451 9.044 17.451 12.005 C 17.451 14.965 15.01 17.361 11.995 17.361 C 8.986 17.361 6.55 14.965 6.55 12.005 Z"
        fill="#d8d8d8"
        fill-opacity="0"
        stroke="#979797"
        stroke-width="0.2"/>
    <path
        id="4"
        d="M 7.317 11.999 C 7.317 9.414 9.416 7.32 12.002 7.32 C 14.586 7.32 16.683 9.414 16.683 11.999 C 16.683 14.587 14.586 16.68 12.002 16.68 C 9.417 16.68 7.317 14.587 7.317 11.999 Z"
        fill="#d8d8d8"
        fill-opacity="0"
        stroke="#979797"
        stroke-width="0.2"/>
    <path
        id="3"
        d="M 9.704 12.001 C 9.704 10.732 10.732 9.705 12 9.705 C 13.268 9.705 14.296 10.732 14.296 12.001 C 14.296 13.268 13.268 14.295 12 14.295 C 10.732 14.295 9.704 13.268 9.704 12.001 Z"
        fill="#d8d8d8"
        fill-opacity="0"
        stroke="#979797"
        stroke-width="0.2"/>
    <path
        id="2"
        d="M 11.274 12 C 11.274 11.6 11.599 11.275 12.001 11.275 C 12.401 11.275 12.726 11.6 12.726 12 C 12.726 12.4 12.401 12.725 12.001 12.725 C 11.599 12.725 11.274 12.4 11.274 12 Z"
        fill="#d8d8d8"
        fill-opacity="0"
        stroke="#979797"
        stroke-width="0.2"/>
    <path
        id="1"
        d="M 11.602 12 C 11.602 11.781 11.78 11.603 12.001 11.603 C 12.22 11.603 12.398 11.781 12.398 12 C 12.398 12.219 12.22 12.397 12.001 12.397 C 11.78 12.397 11.602 12.219 11.602 12 Z"
        fill="#d8d8d8"
        fill-opacity="0"
        stroke="#979797"
        stroke-width="0.2"/>
    <path
        id="rod"
        d="M 12 12 L 19 12 Z"
        fill="#d8d8d8"
        stroke="#979797"
        stroke-width="0.3"
        stroke-linecap="round"
        stroke-linejoin="round"/>
</svg>
