<svg
    xmlns="http://www.w3.org/2000/svg"
    viewBox="0 0 24 24"
    id="end"
    width="24px"
    height="24px">
    <path
        id="dot_mid"
        d="M 11.602 12 C 11.602 11.781 11.78 11.603 12.001 11.603 C 12.22 11.603 12.398 11.781 12.398 12 C 12.398 12.219 12.22 12.397 12.001 12.397 C 11.78 12.397 11.602 12.219 11.602 12 Z"
        fill="#979797"
        stroke="#979797"
        stroke-width="0.1"/>
    <path
        id="5"
        d="M 6.644 12.005 C 6.644 9.095 9.038 6.731 11.995 6.731 C 14.958 6.731 17.357 9.095 17.357 12.005 C 17.357 14.914 14.958 17.269 11.995 17.269 C 9.038 17.269 6.644 14.914 6.644 12.005 Z"
        fill="#d8d8d8"
        fill-opacity="0"
        stroke="#979797"
        stroke-width="0.2"/>
    <path
        id="4"
        d="M 7.331 11.999 C 7.331 9.421 9.423 7.333 12.002 7.333 C 14.579 7.333 16.669 9.421 16.669 11.999 C 16.669 14.58 14.579 16.667 12.002 16.667 C 9.424 16.667 7.331 14.58 7.331 11.999 Z"
        fill="#d8d8d8"
        fill-opacity="0"
        stroke="#979797"
        stroke-width="0.2"/>
    <path
        id="3"
        d="M 9.361 12.001 C 9.361 10.542 10.543 9.362 12 9.362 C 13.457 9.362 14.639 10.542 14.639 12.001 C 14.639 13.458 13.457 14.638 12 14.638 C 10.543 14.638 9.361 13.458 9.361 12.001 Z"
        fill="#d8d8d8"
        fill-opacity="0"
        stroke="#979797"
        stroke-width="0.2"/>
    <path
        id="2"
        d="M 10.974 12 C 10.974 11.434 11.433 10.974 12.001 10.974 C 12.567 10.974 13.026 11.434 13.026 12 C 13.026 12.566 12.567 13.026 12.001 13.026 C 11.433 13.026 10.974 12.566 10.974 12 Z"
        fill="#d8d8d8"
        fill-opacity="0"
        stroke="#979797"
        stroke-width="0.2"/>
    <path
        id="1"
        d="M 11.602 12 C 11.602 11.781 11.78 11.603 12.001 11.603 C 12.22 11.603 12.398 11.781 12.398 12 C 12.398 12.219 12.22 12.397 12.001 12.397 C 11.78 12.397 11.602 12.219 11.602 12 Z"
        fill="#d8d8d8"
        fill-opacity="0"
        stroke="#979797"
        stroke-width="0.2"/>
    <path
        id="rod"
        d="M 12 12 L 19 12 Z"
        fill="#d8d8d8"
        stroke="#979797"
        stroke-width="0.3"
        stroke-linecap="round"
        stroke-linejoin="round"/>
</svg>
