<svg
    xmlns="http://www.w3.org/2000/svg"
    viewBox="0 0 24 24"
    id="end"
    width="24px"
    height="24px">
    <path
        id="dot_mid"
        d="M 11.602 12 C 11.602 11.781 11.78 11.603 12.001 11.603 C 12.22 11.603 12.398 11.781 12.398 12 C 12.398 12.219 12.22 12.397 12.001 12.397 C 11.78 12.397 11.602 12.219 11.602 12 Z"
        fill="#979797"
        stroke="#979797"
        stroke-width="0.1"/>
    <path
        id="5"
        d="M 6.856 12.005 C 6.856 9.21 9.155 6.939 11.995 6.939 C 14.841 6.939 17.145 9.21 17.145 12.005 C 17.145 14.799 14.841 17.061 11.995 17.061 C 9.155 17.061 6.856 14.799 6.856 12.005 Z"
        fill="#d8d8d8"
        fill-opacity="0"
        stroke="#979797"
        stroke-width="0.2"/>
    <path
        id="4"
        d="M 7.814 11.999 C 7.814 9.688 9.69 7.816 12.002 7.816 C 14.312 7.816 16.186 9.688 16.186 11.999 C 16.186 14.313 14.312 16.184 12.002 16.184 C 9.691 16.184 7.814 14.313 7.814 11.999 Z"
        fill="#d8d8d8"
        fill-opacity="0"
        stroke="#979797"
        stroke-width="0.2"/>
    <path
        id="3"
        d="M 8.646 12.001 C 8.646 10.147 10.148 8.647 12 8.647 C 13.852 8.647 15.354 10.147 15.354 12.001 C 15.354 13.853 13.852 15.353 12 15.353 C 10.148 15.353 8.646 13.853 8.646 12.001 Z"
        fill="#d8d8d8"
        fill-opacity="0"
        stroke="#979797"
        stroke-width="0.2"/>
    <path
        id="2"
        d="M 9.746 12 C 9.746 10.755 10.755 9.746 12.001 9.746 C 13.245 9.746 14.254 10.755 14.254 12 C 14.254 13.244 13.245 14.254 12.001 14.254 C 10.755 14.254 9.746 13.244 9.746 12 Z"
        fill="#d8d8d8"
        fill-opacity="0"
        stroke="#979797"
        stroke-width="0.2"/>
    <path
        id="1"
        d="M 11.231 12 C 11.231 11.575 11.576 11.231 12 11.231 C 12.425 11.231 12.77 11.575 12.77 12 C 12.77 12.425 12.425 12.769 12 12.769 C 11.576 12.769 11.231 12.425 11.231 12 Z"
        fill="#d8d8d8"
        fill-opacity="0"
        stroke="#979797"
        stroke-width="0.2"/>
    <path
        id="rod"
        d="M 12 12 L 19 10.463 Z"
        fill="#d8d8d8"
        stroke="#979797"
        stroke-width="0.3"
        stroke-linecap="round"
        stroke-linejoin="round"/>
</svg>
