<svg
    xmlns="http://www.w3.org/2000/svg"
    viewBox="0 0 24 24"
    id="end"
    width="24px"
    height="24px">
    <path
        id="dot_mid"
        d="M 11.602 12 C 11.602 11.781 11.78 11.603 12.001 11.603 C 12.22 11.603 12.398 11.781 12.398 12 C 12.398 12.219 12.22 12.397 12.001 12.397 C 11.78 12.397 11.602 12.219 11.602 12 Z"
        fill="#979797"
        stroke="#979797"
        stroke-width="0.1"/>
    <path
        id="5"
        d="M 6.856 12.005 C 6.856 9.21 9.155 6.939 11.995 6.939 C 14.841 6.939 17.145 9.21 17.145 12.005 C 17.145 14.799 14.841 17.061 11.995 17.061 C 9.155 17.061 6.856 14.799 6.856 12.005 Z"
        fill="#d8d8d8"
        fill-opacity="0"
        stroke="#979797"
        stroke-width="0.2"/>
    <path
        id="4"
        d="M 7.814 11.999 C 7.814 9.688 9.69 7.816 12.002 7.816 C 14.312 7.816 16.186 9.688 16.186 11.999 C 16.186 14.313 14.312 16.184 12.002 16.184 C 9.691 16.184 7.814 14.313 7.814 11.999 Z"
        fill="#d8d8d8"
        fill-opacity="0"
        stroke="#979797"
        stroke-width="0.2"/>
    <path
        id="3"
        d="M 8.766 12.001 C 8.766 10.213 10.214 8.767 12 8.767 C 13.786 8.767 15.234 10.213 15.234 12.001 C 15.234 13.787 13.786 15.233 12 15.233 C 10.214 15.233 8.766 13.787 8.766 12.001 Z"
        fill="#d8d8d8"
        fill-opacity="0"
        stroke="#979797"
        stroke-width="0.2"/>
    <path
        id="2"
        d="M 9.755 12 C 9.755 10.76 10.76 9.755 12.001 9.755 C 13.24 9.755 14.245 10.76 14.245 12 C 14.245 13.239 13.24 14.245 12.001 14.245 C 10.76 14.245 9.755 13.239 9.755 12 Z"
        fill="#d8d8d8"
        fill-opacity="0"
        stroke="#979797"
        stroke-width="0.2"/>
    <path
        id="1"
        d="M 11.078 12 C 11.078 11.49 11.491 11.078 12 11.078 C 12.51 11.078 12.923 11.49 12.923 12 C 12.923 12.51 12.51 12.922 12 12.922 C 11.491 12.922 11.078 12.51 11.078 12 Z"
        fill="#d8d8d8"
        fill-opacity="0"
        stroke="#979797"
        stroke-width="0.2"/>
    <path
        id="rod"
        d="M 12 12 L 19 9.155 Z"
        fill="#d8d8d8"
        stroke="#979797"
        stroke-width="0.3"
        stroke-linecap="round"
        stroke-linejoin="round"/>
</svg>
